<?xml version="1.0"?><svg width="640" height="480" xmlns="http://www.w3.org/2000/svg">
 <title>house logo</title>
 <metadata id="metadata7">image/svg+xml</metadata>
 <g>
  <title>Layer 1</title>
  <g id="svg_5">
   <path id="rect2391" d="m543.521973,244.054001l0,0zm0,0l-222.957977,-156.007301l-223.086098,156.075294l0,223.022995c0,5.759003 5.891106,10.380005 13.181099,10.380005l139.423004,0l0,-97.783997c0,-5.76001 5.847992,-10.414001 13.138,-10.414001l114.559998,0c7.290009,0 13.138,4.653992 13.138,10.414001l0,97.783997l139.465973,0c7.290039,0 13.138,-4.621002 13.138,-10.380005l0,-223.090988l0,0zm-446.044075,0.067993l0,0z" fill="#007fff"/>
   <path id="path2399" d="m319.270386,2.66966l-316.401366,221.354876l33.329329,29.708084l284.366562,-198.958481l284.301239,198.958481l33.264709,-29.708084l-316.336456,-221.354876l-1.229492,1.1251l-1.294434,-1.1251l-0.000092,0z" fill="#007fff"/>
   <path id="rect2404" d="m97.477928,34.53286l80.208641,0l-0.698853,37.535103l-79.509789,56.751633l0,-94.286736z" fill="#007fff"/>
  </g>
 </g>
</svg>